<svg width="43" height="44" viewBox="0 0 43 44" fill="none" xmlns="http://www.w3.org/2000/svg">
<mask id="path-1-inside-1_962_2198" fill="white">
<path d="M4.625 2.3125H2.3125V32.375C2.3125 32.9883 2.55614 33.5765 2.98982 34.0102C3.42349 34.4439 4.01169 34.6875 4.625 34.6875H34.6875V32.375H4.625V2.3125Z"/>
</mask>
<path d="M4.625 2.3125H2.3125V32.375C2.3125 32.9883 2.55614 33.5765 2.98982 34.0102C3.42349 34.4439 4.01169 34.6875 4.625 34.6875H34.6875V32.375H4.625V2.3125Z" fill="white"/>
<path d="M4.625 2.3125H8.625V-1.6875H4.625V2.3125ZM2.3125 2.3125V-1.6875H-1.6875V2.3125H2.3125ZM2.3125 32.375H-1.6875H2.3125ZM34.6875 34.6875V38.6875H38.6875V34.6875H34.6875ZM34.6875 32.375H38.6875V28.375H34.6875V32.375ZM4.625 32.375H0.625V36.375H4.625V32.375ZM4.625 -1.6875H2.3125V6.3125H4.625V-1.6875ZM-1.6875 2.3125V32.375H6.3125V2.3125H-1.6875ZM-1.6875 32.375C-1.6875 34.0492 -1.02243 35.6548 0.161388 36.8386L5.81824 31.1818C6.13471 31.4982 6.3125 31.9274 6.3125 32.375H-1.6875ZM0.161388 36.8386C1.34521 38.0224 2.95082 38.6875 4.625 38.6875V30.6875C5.07255 30.6875 5.50178 30.8653 5.81824 31.1818L0.161388 36.8386ZM4.625 38.6875H34.6875V30.6875H4.625V38.6875ZM38.6875 34.6875V32.375H30.6875V34.6875H38.6875ZM34.6875 28.375H4.625V36.375H34.6875V28.375ZM8.625 32.375V2.3125H0.625V32.375H8.625Z" fill="#1CAAE2" mask="url(#path-1-inside-1_962_2198)"/>
<mask id="path-3-inside-2_962_2198" fill="white">
<path d="M34.6875 10.4062H26.5938V12.7188H30.7447L21.9688 21.4947L17.0084 16.5228C16.9009 16.4144 16.7731 16.3284 16.6322 16.2697C16.4913 16.211 16.3401 16.1808 16.1875 16.1808C16.0349 16.1808 15.8837 16.211 15.7428 16.2697C15.6019 16.3284 15.4741 16.4144 15.3666 16.5228L6.9375 24.9634L8.56781 26.5938L16.1875 18.9741L21.1478 23.9459C21.2553 24.0543 21.3832 24.1403 21.5241 24.199C21.665 24.2577 21.8161 24.288 21.9688 24.288C22.1214 24.288 22.2725 24.2577 22.4134 24.199C22.5543 24.1403 22.6822 24.0543 22.7897 23.9459L32.375 14.3491V18.5H34.6875V10.4062Z"/>
</mask>
<path d="M34.6875 10.4062H26.5938V12.7188H30.7447L21.9688 21.4947L17.0084 16.5228C16.9009 16.4144 16.7731 16.3284 16.6322 16.2697C16.4913 16.211 16.3401 16.1808 16.1875 16.1808C16.0349 16.1808 15.8837 16.211 15.7428 16.2697C15.6019 16.3284 15.4741 16.4144 15.3666 16.5228L6.9375 24.9634L8.56781 26.5938L16.1875 18.9741L21.1478 23.9459C21.2553 24.0543 21.3832 24.1403 21.5241 24.199C21.665 24.2577 21.8161 24.288 21.9688 24.288C22.1214 24.288 22.2725 24.2577 22.4134 24.199C22.5543 24.1403 22.6822 24.0543 22.7897 23.9459L32.375 14.3491V18.5H34.6875V10.4062Z" fill="white"/>
<path d="M34.6875 10.4062H38.6875V6.40625H34.6875V10.4062ZM26.5938 10.4062V6.40625H22.5938V10.4062H26.5938ZM26.5938 12.7188H22.5938V16.7188H26.5938V12.7188ZM30.7447 12.7188L33.5731 15.5472L40.4015 8.71875H30.7447V12.7188ZM21.9688 21.4947L19.137 24.3198L21.9655 27.1548L24.7972 24.3231L21.9688 21.4947ZM17.0084 16.5228L14.1684 19.3396L14.1767 19.3479L17.0084 16.5228ZM16.1875 16.1808V20.1808V16.1808ZM15.3666 16.5228L18.1969 19.3493L18.2066 19.3396L15.3666 16.5228ZM6.9375 24.9634L4.10713 22.1369L1.28258 24.9654L4.10907 27.7919L6.9375 24.9634ZM8.56781 26.5938L5.73939 29.4222L8.56781 32.2506L11.3962 29.4222L8.56781 26.5938ZM16.1875 18.9741L19.0192 16.1489L16.1908 13.3139L13.3591 16.1456L16.1875 18.9741ZM21.1478 23.9459L23.9878 21.1291L23.9795 21.1208L21.1478 23.9459ZM22.7897 23.9459L19.9595 21.1192L19.9497 21.1291L22.7897 23.9459ZM32.375 14.3491H36.375V4.68397L29.5449 11.5223L32.375 14.3491ZM32.375 18.5H28.375V22.5H32.375V18.5ZM34.6875 18.5V22.5H38.6875V18.5H34.6875ZM34.6875 6.40625H26.5938V14.4062H34.6875V6.40625ZM22.5938 10.4062V12.7188H30.5938V10.4062H22.5938ZM26.5938 16.7188H30.7447V8.71875H26.5938V16.7188ZM27.9163 9.89032L19.1403 18.6663L24.7972 24.3231L33.5731 15.5472L27.9163 9.89032ZM24.8005 18.6696L19.8402 13.6977L14.1767 19.3479L19.137 24.3198L24.8005 18.6696ZM19.8484 13.706C19.3691 13.2227 18.7988 12.8391 18.1705 12.5773L15.0939 19.9621C14.7473 19.8177 14.4328 19.6062 14.1684 19.3396L19.8484 13.706ZM18.1705 12.5773C17.5421 12.3156 16.8682 12.1808 16.1875 12.1808V20.1808C15.8121 20.1808 15.4404 20.1065 15.0939 19.9621L18.1705 12.5773ZM16.1875 12.1808C15.5068 12.1808 14.8329 12.3156 14.2045 12.5773L17.2811 19.9621C16.9346 20.1065 16.5629 20.1808 16.1875 20.1808V12.1808ZM14.2045 12.5773C13.5762 12.8391 13.0059 13.2227 12.5266 13.706L18.2066 19.3396C17.9422 19.6062 17.6277 19.8177 17.2811 19.9621L14.2045 12.5773ZM12.5362 13.6963L4.10713 22.1369L9.76787 27.7899L18.1969 19.3493L12.5362 13.6963ZM4.10907 27.7919L5.73939 29.4222L11.3962 23.7653L9.76593 22.135L4.10907 27.7919ZM11.3962 29.4222L19.0159 21.8025L13.3591 16.1456L5.73939 23.7653L11.3962 29.4222ZM13.3558 21.7992L18.3161 26.7711L23.9795 21.1208L19.0192 16.1489L13.3558 21.7992ZM18.3078 26.7627C18.7871 27.246 19.3574 27.6296 19.9858 27.8914L23.0624 20.5067C23.409 20.651 23.7235 20.8626 23.9878 21.1291L18.3078 26.7627ZM19.9858 27.8914C20.6141 28.1532 21.2881 28.288 21.9688 28.288V20.288C22.3441 20.288 22.7158 20.3623 23.0624 20.5067L19.9858 27.8914ZM21.9688 28.288C22.6494 28.288 23.3234 28.1532 23.9517 27.8914L20.8751 20.5067C21.2217 20.3623 21.5934 20.288 21.9688 20.288V28.288ZM23.9517 27.8914C24.5801 27.6296 25.1504 27.246 25.6297 26.7627L19.9497 21.1291C20.214 20.8626 20.5285 20.651 20.8751 20.5067L23.9517 27.8914ZM25.6198 26.7727L35.2051 17.1758L29.5449 11.5223L19.9596 21.1192L25.6198 26.7727ZM28.375 14.3491V18.5H36.375V14.3491H28.375ZM32.375 22.5H34.6875V14.5H32.375V22.5ZM38.6875 18.5V10.4062H30.6875V18.5H38.6875Z" fill="#1CAAE2" mask="url(#path-3-inside-2_962_2198)"/>
</svg>
