<svg width="47" height="47" viewBox="0 0 47 47" fill="none" xmlns="http://www.w3.org/2000/svg">
<path fill-rule="evenodd" clip-rule="evenodd" d="M14.6196 2.08726C16.9167 1.98151 17.6492 1.95801 23.5007 1.95801C29.3521 1.95801 30.0846 1.98347 32.3797 2.08726C34.6749 2.19105 36.2416 2.55726 37.6124 3.08797C39.0479 3.63042 40.3501 4.47838 41.4272 5.57505C42.5239 6.65017 43.3699 7.95051 43.9104 9.38792C44.4431 10.7588 44.8073 12.3254 44.9131 14.6167C45.0188 16.9177 45.0423 17.6501 45.0423 23.4997C45.0423 29.3512 45.0169 30.0836 44.9131 32.3807C44.8093 34.672 44.4431 36.2386 43.9104 37.6095C43.3699 39.0471 42.5225 40.3496 41.4272 41.4263C40.3501 42.5229 39.0479 43.3689 37.6124 43.9094C36.2416 44.4421 34.6749 44.8063 32.3836 44.9121C30.0846 45.0178 29.3521 45.0413 23.5007 45.0413C17.6492 45.0413 16.9167 45.0159 14.6196 44.9121C12.3284 44.8083 10.7617 44.4421 9.39086 43.9094C7.95329 43.3689 6.6508 42.5215 5.57407 41.4263C4.47814 40.3505 3.63006 39.0486 3.08894 37.6114C2.55823 36.2406 2.19398 34.6739 2.08823 32.3827C1.98248 30.0816 1.95898 29.3492 1.95898 23.4997C1.95898 17.6482 1.98444 16.9158 2.08823 14.6206C2.19203 12.3254 2.55823 10.7588 3.08894 9.38792C3.63086 7.95067 4.47959 6.64883 5.57603 5.57309C6.65123 4.47741 7.95241 3.62933 9.3889 3.08797C10.7597 2.55726 12.3264 2.19301 14.6177 2.08726H14.6196ZM32.2054 5.96476C29.9338 5.86097 29.2523 5.83942 23.5007 5.83942C17.749 5.83942 17.0675 5.86097 14.7959 5.96476C12.6946 6.06072 11.5548 6.41126 10.795 6.70697C9.79036 7.09863 9.07165 7.56276 8.31769 8.31672C7.60299 9.01203 7.05296 9.85848 6.70794 10.794C6.41223 11.5538 6.06169 12.6936 5.96573 14.7949C5.86194 17.0665 5.8404 17.748 5.8404 23.4997C5.8404 29.2513 5.86194 29.9328 5.96573 32.2045C6.06169 34.3058 6.41223 35.4455 6.70794 36.2053C7.05261 37.1395 7.6029 37.9874 8.31769 38.6826C9.0129 39.3974 9.86086 39.9477 10.795 40.2924C11.5548 40.5881 12.6946 40.9386 14.7959 41.0346C17.0675 41.1384 17.7471 41.1599 23.5007 41.1599C29.2542 41.1599 29.9338 41.1384 32.2054 41.0346C34.3067 40.9386 35.4465 40.5881 36.2063 40.2924C37.2109 39.9007 37.9296 39.4366 38.6836 38.6826C39.3984 37.9874 39.9487 37.1395 40.2934 36.2053C40.5891 35.4455 40.9396 34.3058 41.0356 32.2045C41.1394 29.9328 41.1609 29.2513 41.1609 23.4997C41.1609 17.748 41.1394 17.0665 41.0356 14.7949C40.9396 12.6936 40.5891 11.5538 40.2934 10.794C39.9017 9.78938 39.4376 9.07067 38.6836 8.31672C37.9883 7.60206 37.1418 7.05205 36.2063 6.70697C35.4465 6.41126 34.3067 6.06072 32.2054 5.96476ZM20.7492 30.1404C22.2858 30.78 23.9968 30.8664 25.5901 30.3846C27.1833 29.9029 28.5598 28.883 29.4846 27.4991C30.4093 26.1152 30.8249 24.4531 30.6604 22.7968C30.4959 21.1405 29.7615 19.5927 28.5825 18.4178C27.831 17.6667 26.9223 17.0916 25.9218 16.7339C24.9213 16.3762 23.854 16.2448 22.7966 16.349C21.7393 16.4533 20.7182 16.7908 19.8069 17.3371C18.8955 17.8833 18.1167 18.6249 17.5264 19.5083C16.936 20.3917 16.5489 21.395 16.3929 22.446C16.2369 23.497 16.3158 24.5695 16.624 25.5863C16.9323 26.6031 17.4621 27.539 18.1754 28.3264C18.8887 29.1139 19.7677 29.7334 20.7492 30.1404ZM15.6712 15.6703C16.6994 14.6421 17.92 13.8265 19.2634 13.27C20.6068 12.7136 22.0466 12.4272 23.5007 12.4272C24.9547 12.4272 26.3945 12.7136 27.7379 13.27C29.0813 13.8265 30.3019 14.6421 31.3301 15.6703C32.3582 16.6984 33.1738 17.9191 33.7303 19.2624C34.2867 20.6058 34.5731 22.0456 34.5731 23.4997C34.5731 24.9537 34.2867 26.3935 33.7303 27.7369C33.1738 29.0803 32.3582 30.3009 31.3301 31.3291C29.2536 33.4056 26.4373 34.5721 23.5007 34.5721C20.564 34.5721 17.7477 33.4056 15.6712 31.3291C13.5947 29.2526 12.4282 26.4363 12.4282 23.4997C12.4282 20.5631 13.5947 17.7467 15.6712 15.6703ZM37.0288 14.0762C37.2836 13.8358 37.4876 13.5468 37.6287 13.2262C37.7697 12.9056 37.8451 12.56 37.8502 12.2097C37.8553 11.8595 37.7901 11.5118 37.6584 11.1873C37.5267 10.8627 37.3312 10.5678 37.0836 10.3202C36.8359 10.0725 36.541 9.87703 36.2165 9.74535C35.8919 9.61368 35.5442 9.54846 35.194 9.55357C34.8438 9.55867 34.4981 9.634 34.1775 9.77508C33.8569 9.91616 33.5679 10.1201 33.3276 10.3749C32.8601 10.8704 32.6042 11.5286 32.6141 12.2097C32.6241 12.8909 32.8991 13.5413 33.3807 14.023C33.8624 14.5047 34.5129 14.7797 35.194 14.7896C35.8751 14.7995 36.5333 14.5436 37.0288 14.0762Z" fill="white"/>
</svg>
