<svg width="174" height="57" viewBox="0 0 174 57" fill="none" xmlns="http://www.w3.org/2000/svg">
<path d="M19.8585 4.16699H34.1287L23.805 17.9604L1.44531 29.82L19.8585 4.16699Z" fill="#068441"/>
<path d="M23.9695 20.9092H39.653L17.5087 32.9515H0L23.9695 20.9092Z" fill="#5B519D"/>
<path d="M17.7877 35.7992L38.9117 23.356L14.5977 56.1908L17.7877 35.7992Z" fill="#1CAAE2"/>
<path d="M60.5989 5.35015H48.5036V8.50669H52.7124V19.4629H56.3902V8.50669H60.5989V5.35015ZM62.1917 19.4629H65.8695V13.6518H70.7153V19.4629H74.3834V5.35015H70.7153V10.4856H65.8695V5.35015H62.1917V19.4629ZM89.085 5.35015H85.4072V13.8448C85.4458 15.6789 84.6221 16.5959 82.936 16.5959C81.25 16.5959 80.4262 15.6789 80.4649 13.8448V5.35015H76.7871V13.6325C76.7484 17.7189 78.7981 19.7621 82.936 19.7621C87.074 19.7621 89.1236 17.7189 89.085 13.6325V5.35015ZM91.4983 19.4629H94.9541V10.669H94.9927L99.8964 19.4629H103.671V5.35015H100.215V14.0475H100.176L95.2726 5.35015H91.4983V19.4629ZM106.19 19.4629H112.262C116.792 19.4371 119.1 17.0657 119.183 12.3486C119.1 7.76019 116.792 5.42737 112.262 5.35015H106.19V19.4629ZM109.868 8.50669H111.606C114.18 8.50669 115.48 9.78089 115.505 12.3293C115.544 15.0321 114.244 16.3546 111.606 16.2967H109.868V8.50669ZM121.191 19.4629H132.64V16.2967H124.869V13.6131H131.79V10.7655H124.869V8.29432H132.437V5.35015H121.191V19.4629ZM134.744 19.4629H138.422V14.3275H141.211C141.643 14.3275 141.997 14.4047 142.273 14.5591C142.537 14.72 142.737 14.9388 142.872 15.2156C143.013 15.4923 143.11 15.8012 143.161 16.1422C143.219 16.4833 143.255 16.8405 143.268 17.2137C143.293 17.4454 143.332 17.8058 143.383 18.2949C143.422 18.5201 143.461 18.7389 143.499 18.9513C143.538 19.1765 143.599 19.3471 143.683 19.4629H147.312C147.209 19.3149 147.119 19.0961 147.042 18.8065C146.965 18.5298 146.904 18.2209 146.858 17.8798C146.781 17.1719 146.736 16.6378 146.723 16.2774C146.685 15.5695 146.521 14.8777 146.231 14.202C146.07 13.8738 145.864 13.5906 145.613 13.3525C145.362 13.1273 145.047 12.976 144.667 12.8988V12.8602C145.42 12.5449 145.98 12.0654 146.347 11.4219C146.701 10.7848 146.878 10.0834 146.878 9.31755C146.852 7.89533 146.347 6.87533 145.362 6.25753C144.384 5.65261 143.242 5.35015 141.935 5.35015H134.744V19.4629ZM138.422 8.29432H141.347C141.874 8.29432 142.315 8.41338 142.669 8.65149C143.01 8.90247 143.19 9.2918 143.21 9.8195C143.19 10.9135 142.621 11.467 141.501 11.4798H138.422V8.29432Z" fill="white"/>
<path d="M49.831 41.9956H53.5088V36.5609H59.3199V33.7133H53.5088V30.827H60.2273V27.8829H49.831V41.9956ZM60.4976 41.9956H64.7256L67.6119 37.2946L70.2568 41.9956H74.7261L69.7452 34.5821L74.3111 27.8829H70.1216L67.6119 32.2653L65.2372 27.8829H60.9126L65.5171 34.5821L60.4976 41.9956Z" fill="white"/>
</svg>
