<svg width="45" height="45" viewBox="0 0 45 45" fill="none" xmlns="http://www.w3.org/2000/svg">
<path d="M44.3316 9.25671C42.7659 9.95046 41.0841 10.4192 39.3159 10.6311C41.1403 9.53945 42.5052 7.82134 43.1559 5.79734C41.4419 6.81544 39.566 7.53208 37.6097 7.91609C36.2942 6.51146 34.5517 5.58045 32.6528 5.2676C30.7539 4.95476 28.8049 5.27757 27.1083 6.18594C25.4116 7.0943 24.0624 8.53739 23.27 10.2912C22.4776 12.0449 22.2863 14.0112 22.7259 15.8848C19.2528 15.7105 15.8552 14.8077 12.7536 13.2353C9.65198 11.6628 6.91564 9.45577 4.72219 6.75734C3.97219 8.05109 3.54094 9.55109 3.54094 11.1486C3.5401 12.5867 3.89425 14.0028 4.57196 15.2712C5.24967 16.5396 6.22999 17.6212 7.42594 18.4198C6.03896 18.3757 4.68257 18.0009 3.46969 17.3267V17.4392C3.46955 19.4562 4.16725 21.4112 5.44441 22.9723C6.72156 24.5335 8.49951 25.6047 10.4766 26.0042C9.18991 26.3524 7.84095 26.4037 6.53156 26.1542C7.08937 27.8897 8.17593 29.4074 9.63913 30.4947C11.1023 31.582 12.8689 32.1846 14.6916 32.218C11.5975 34.6469 7.77635 35.9644 3.84281 35.9586C3.14603 35.9588 2.44983 35.9181 1.75781 35.8367C5.75058 38.4039 10.3985 39.7664 15.1453 39.7611C31.2141 39.7611 39.9984 26.4523 39.9984 14.9098C39.9984 14.5348 39.9891 14.1561 39.9722 13.7811C41.6809 12.5454 43.1558 11.0153 44.3278 9.26234L44.3316 9.25671Z" fill="white"/>
</svg>
